STARTFONT 2.1
COMMENT  (c) Copyright Bigelow & Holmes 1986, 1985. Lucida is a registered
COMMENT  trademark of Bigelow & Holmes. See LEGAL NOTICE file for terms 
COMMENT  of the license. 
FONT -B&H-LucidaTypewriter-Medium-R-Normal-Sans-11-80-100-100-M-70-ISO8859-1
SIZE 8 100 100
FONTBOUNDINGBOX 9 12 0 -2
STARTPROPERTIES 19
COMMENT Begin LogicalFontDescription
FONTNAME_REGISTRY ""
FOUNDRY "B&H"
FAMILY_NAME "LucidaTypewriter"
WEIGHT_NAME "Medium"
SLANT "R"
SETWIDTH_NAME "Normal"
ADD_STYLE_NAME "Sans"
PIXEL_SIZE 11
POINT_SIZE 80
RESOLUTION_X 100
RESOLUTION_Y 100
SPACING "M"
AVERAGE_WIDTH 70
CHARSET_REGISTRY "ISO8859"
CHARSET_ENCODING "1"
COMMENT END LogicalFontDescription
FONT_ASCENT 10
FONT_DESCENT 3
DEFAULT_CHAR 32
COPYRIGHT "Copyright Bigelow & Holmes 1986, 1985."
ENDPROPERTIES
CHARS 228
STARTCHAR space
ENCODING 32
SWIDTH 42 0
DWIDTH 7 0
BBX 1 1 0 0
BITMAP
00
ENDCHAR
STARTCHAR exclam
ENCODING 33
SWIDTH 42 0
DWIDTH 7 0
BBX 1 8 3 0
BITMAP
80
80
80
80
80
80
00
80
ENDCHAR
STARTCHAR quotedbl
ENCODING 34
SWIDTH 42 0
DWIDTH 7 0
BBX 3 3 2 5
BITMAP
A0
A0
A0
ENDCHAR
STARTCHAR numbersign
ENCODING 35
SWIDTH 42 0
DWIDTH 7 0
BBX 6 8 0 0
BITMAP
28
28
FC
78
FC
50
50
50
ENDCHAR
STARTCHAR dollar
ENCODING 36
SWIDTH 42 0
DWIDTH 7 0
BBX 5 10 1 -1
BITMAP
20
78
A0
A0
60
30
28
28
F0
20
ENDCHAR
STARTCHAR percent
ENCODING 37
SWIDTH 42 0
DWIDTH 7 0
BBX 6 8 0 0
BITMAP
44
A8
B8
50
28
74
54
88
ENDCHAR
STARTCHAR ampersand
ENCODING 38
SWIDTH 42 0
DWIDTH 7 0
BBX 7 8 0 0
BITMAP
38
48
58
60
B2
9A
CC
7E
ENDCHAR
STARTCHAR quoteright
ENCODING 39
SWIDTH 42 0
DWIDTH 7 0
BBX 2 3 2 5
BITMAP
C0
40
C0
ENDCHAR
STARTCHAR parenleft
ENCODING 40
SWIDTH 42 0
DWIDTH 7 0
BBX 4 10 2 -2
BITMAP
30
40
C0
80
80
80
80
40
40
30
ENDCHAR
STARTCHAR parenright
ENCODING 41
SWIDTH 42 0
DWIDTH 7 0
BBX 4 10 1 -2
BITMAP
C0
20
20
10
10
10
10
20
20
C0
ENDCHAR
STARTCHAR asterisk
ENCODING 42
SWIDTH 42 0
DWIDTH 7 0
BBX 5 5 1 3
BITMAP
20
A8
50
50
50
ENDCHAR
STARTCHAR plus
ENCODING 43
SWIDTH 42 0
DWIDTH 7 0
BBX 5 6 1 0
BITMAP
20
20
F8
20
20
20
ENDCHAR
STARTCHAR comma
ENCODING 44
SWIDTH 42 0
DWIDTH 7 0
BBX 2 4 2 -2
BITMAP
C0
C0
40
C0
ENDCHAR
STARTCHAR minus
ENCODING 45
SWIDTH 42 0
DWIDTH 7 0
BBX 6 1 0 2
BITMAP
FC
ENDCHAR
STARTCHAR period
ENCODING 46
SWIDTH 42 0
DWIDTH 7 0
BBX 2 1 2 0
BITMAP
C0
ENDCHAR
STARTCHAR slash
ENCODING 47
SWIDTH 42 0
DWIDTH 7 0
BBX 6 10 0 -2
BITMAP
04
08
08
10
10
20
20
40
40
80
ENDCHAR
STARTCHAR zero
ENCODING 48
SWIDTH 42 0
DWIDTH 7 0
BBX 5 8 1 0
BITMAP
70
98
88
88
88
88
88
70
ENDCHAR
STARTCHAR one
ENCODING 49
SWIDTH 42 0
DWIDTH 7 0
BBX 5 8 1 0
BITMAP
60
A0
20
20
20
20
20
F8
ENDCHAR
STARTCHAR two
ENCODING 50
SWIDTH 42 0
DWIDTH 7 0
BBX 4 8 1 0
BITMAP
E0
90
10
30
20
40
80
F0
ENDCHAR
STARTCHAR three
ENCODING 51
SWIDTH 42 0
DWIDTH 7 0
BBX 4 8 1 0
BITMAP
E0
10
10
60
10
10
10
E0
ENDCHAR
STARTCHAR four
ENCODING 52
SWIDTH 42 0
DWIDTH 7 0
BBX 5 8 1 0
BITMAP
10
30
70
50
90
F8
10
10
ENDCHAR
STARTCHAR five
ENCODING 53
SWIDTH 42 0
DWIDTH 7 0
BBX 4 8 1 0
BITMAP
F0
80
80
E0
30
10
10
E0
ENDCHAR
STARTCHAR six
ENCODING 54
SWIDTH 42 0
DWIDTH 7 0
BBX 5 8 1 0
BITMAP
38
40
80
F0
88
88
88
70
ENDCHAR
STARTCHAR seven
ENCODING 55
SWIDTH 42 0
DWIDTH 7 0
BBX 5 8 1 0
BITMAP
F8
08
10
30
20
40
C0
80
ENDCHAR
STARTCHAR eight
ENCODING 56
SWIDTH 42 0
DWIDTH 7 0
BBX 5 8 1 0
BITMAP
70
88
88
70
D8
88
88
70
ENDCHAR
STARTCHAR nine
ENCODING 57
SWIDTH 42 0
DWIDTH 7 0
BBX 5 8 1 0
BITMAP
70
88
88
88
78
08
10
E0
ENDCHAR
STARTCHAR colon
ENCODING 58
SWIDTH 42 0
DWIDTH 7 0
BBX 1 6 3 0
BITMAP
80
00
00
00
00
80
ENDCHAR
STARTCHAR semicolon
ENCODING 59
SWIDTH 42 0
DWIDTH 7 0
BBX 1 8 3 -2
BITMAP
80
00
00
00
80
80
80
80
ENDCHAR
STARTCHAR less
ENCODING 60
SWIDTH 42 0
DWIDTH 7 0
BBX 6 6 0 0
BITMAP
04
18
E0
60
18
04
ENDCHAR
STARTCHAR equal
ENCODING 61
SWIDTH 42 0
DWIDTH 7 0
BBX 6 4 0 1
BITMAP
FC
00
00
FC
ENDCHAR
STARTCHAR greater
ENCODING 62
SWIDTH 42 0
DWIDTH 7 0
BBX 6 6 0 0
BITMAP
80
60
18
1C
60
80
ENDCHAR
STARTCHAR question
ENCODING 63
SWIDTH 42 0
DWIDTH 7 0
BBX 5 8 1 0
BITMAP
F0
88
08
10
20
20
00
20
ENDCHAR
STARTCHAR at
ENCODING 64
SWIDTH 42 0
DWIDTH 7 0
BBX 7 8 0 0
BITMAP
3C
44
9C
A4
AC
BE
40
38
ENDCHAR
STARTCHAR A
ENCODING 65
SWIDTH 42 0
DWIDTH 7 0
BBX 6 8 0 0
BITMAP
30
30
30
58
48
78
88
84
ENDCHAR
STARTCHAR B
ENCODING 66
SWIDTH 42 0
DWIDTH 7 0
BBX 5 8 1 0
BITMAP
F8
88
88
F0
90
88
88
F0
ENDCHAR
STARTCHAR C
ENCODING 67
SWIDTH 42 0
DWIDTH 7 0
BBX 6 8 0 0
BITMAP
3C
40
80
80
80
80
40
3C
ENDCHAR
STARTCHAR D
ENCODING 68
SWIDTH 42 0
DWIDTH 7 0
BBX 6 8 0 0
BITMAP
F8
8C
84
84
84
84
8C
F8
ENDCHAR
STARTCHAR E
ENCODING 69
SWIDTH 42 0
DWIDTH 7 0
BBX 5 8 1 0
BITMAP
F8
80
80
F0
80
80
80
F8
ENDCHAR
STARTCHAR F
ENCODING 70
SWIDTH 42 0
DWIDTH 7 0
BBX 5 8 1 0
BITMAP
F8
80
80
80
F0
80
80
80
ENDCHAR
STARTCHAR G
ENCODING 71
SWIDTH 42 0
DWIDTH 7 0
BBX 6 8 0 0
BITMAP
3C
40
80
80
84
84
44
3C
ENDCHAR
STARTCHAR H
ENCODING 72
SWIDTH 42 0
DWIDTH 7 0
BBX 5 8 1 0
BITMAP
88
88
88
F8
88
88
88
88
ENDCHAR
STARTCHAR I
ENCODING 73
SWIDTH 42 0
DWIDTH 7 0
BBX 5 8 1 0
BITMAP
F8
20
20
20
20
20
20
F8
ENDCHAR
STARTCHAR J
ENCODING 74
SWIDTH 42 0
DWIDTH 7 0
BBX 4 8 1 0
BITMAP
70
10
10
10
10
10
10
E0
ENDCHAR
STARTCHAR K
ENCODING 75
SWIDTH 42 0
DWIDTH 7 0
BBX 6 8 1 0
BITMAP
88
90
A0
E0
A0
B0
98
8C
ENDCHAR
STARTCHAR L
ENCODING 76
SWIDTH 42 0
DWIDTH 7 0
BBX 5 8 1 0
BITMAP
80
80
80
80
80
80
80
F8
ENDCHAR
STARTCHAR M
ENCODING 77
SWIDTH 42 0
DWIDTH 7 0
BBX 6 8 0 0
BITMAP
CC
CC
CC
CC
B4
B4
B4
84
ENDCHAR
STARTCHAR N
ENCODING 78
SWIDTH 42 0
DWIDTH 7 0
BBX 5 8 1 0
BITMAP
88
C8
C8
A8
A8
98
98
88
ENDCHAR
STARTCHAR O
ENCODING 79
SWIDTH 42 0
DWIDTH 7 0
BBX 6 8 0 0
BITMAP
78
48
84
84
84
84
48
78
ENDCHAR
STARTCHAR P
ENCODING 80
SWIDTH 42 0
DWIDTH 7 0
BBX 5 8 1 0
BITMAP
F8
88
88
88
F0
80
80
80
ENDCHAR
STARTCHAR Q
ENCODING 81
SWIDTH 42 0
DWIDTH 7 0
BBX 6 10 1 -2
BITMAP
78
48
84
84
84
84
4C
78
08
04
ENDCHAR
STARTCHAR R
ENCODING 82
SWIDTH 42 0
DWIDTH 7 0
BBX 6 8 1 0
BITMAP
F8
88
88
98
E0
90
88
8C
ENDCHAR
STARTCHAR S
ENCODING 83
SWIDTH 42 0
DWIDTH 7 0
BBX 5 8 1 0
BITMAP
70
80
80
60
18
08
88
F0
ENDCHAR
STARTCHAR T
ENCODING 84
SWIDTH 42 0
DWIDTH 7 0
BBX 7 8 0 0
BITMAP
FE
10
10
10
10
10
10
10
ENDCHAR
STARTCHAR U
ENCODING 85
SWIDTH 42 0
DWIDTH 7 0
BBX 5 8 1 0
BITMAP
88
88
88
88
88
88
88
70
ENDCHAR
STARTCHAR V
ENCODING 86
SWIDTH 42 0
DWIDTH 7 0
BBX 6 8 0 0
BITMAP
84
84
48
48
48
30
30
30
ENDCHAR
STARTCHAR W
ENCODING 87
SWIDTH 42 0
DWIDTH 7 0
BBX 7 8 0 0
BITMAP
82
92
AA
AE
6C
6C
64
44
ENDCHAR
STARTCHAR X
ENCODING 88
SWIDTH 42 0
DWIDTH 7 0
BBX 6 8 0 0
BITMAP
C4
48
30
30
30
78
48
84
ENDCHAR
STARTCHAR Y
ENCODING 89
SWIDTH 42 0
DWIDTH 7 0
BBX 7 8 0 0
BITMAP
C6
44
28
28
10
10
10
10
ENDCHAR
STARTCHAR Z
ENCODING 90
SWIDTH 42 0
DWIDTH 7 0
BBX 6 8 0 0
BITMAP
FC
08
18
10
20
40
C0
FC
ENDCHAR
STARTCHAR bracketleft
ENCODING 91
SWIDTH 42 0
DWIDTH 7 0
BBX 3 10 3 -2
BITMAP
E0
80
80
80
80
80
80
80
80
E0
ENDCHAR
STARTCHAR backslash
ENCODING 92
SWIDTH 42 0
DWIDTH 7 0
BBX 6 10 0 -2
BITMAP
80
40
40
20
20
10
10
08
08
04
ENDCHAR
STARTCHAR bracketright
ENCODING 93
SWIDTH 42 0
DWIDTH 7 0
BBX 3 10 1 -2
BITMAP
E0
20
20
20
20
20
20
20
20
E0
ENDCHAR
STARTCHAR asciicircum
ENCODING 94
SWIDTH 42 0
DWIDTH 7 0
BBX 6 7 0 1
BITMAP
10
30
30
78
48
48
84
ENDCHAR
STARTCHAR underscore
ENCODING 95
SWIDTH 42 0
DWIDTH 7 0
BBX 7 1 0 -1
BITMAP
FE
ENDCHAR
STARTCHAR quoteleft
ENCODING 96
SWIDTH 42 0
DWIDTH 7 0
BBX 2 3 2 5
BITMAP
C0
80
C0
ENDCHAR
STARTCHAR a
ENCODING 97
SWIDTH 42 0
DWIDTH 7 0
BBX 6 6 1 0
BITMAP
78
48
78
88
88
7C
ENDCHAR
STARTCHAR b
ENCODING 98
SWIDTH 42 0
DWIDTH 7 0
BBX 5 8 1 0
BITMAP
80
80
B0
C8
88
88
98
F0
ENDCHAR
STARTCHAR c
ENCODING 99
SWIDTH 42 0
DWIDTH 7 0
BBX 5 6 1 0
BITMAP
78
C0
80
80
C0
78
ENDCHAR
STARTCHAR d
ENCODING 100
SWIDTH 42 0
DWIDTH 7 0
BBX 5 8 1 0
BITMAP
08
08
78
C8
88
88
98
68
ENDCHAR
STARTCHAR e
ENCODING 101
SWIDTH 42 0
DWIDTH 7 0
BBX 5 6 1 0
BITMAP
70
88
F8
80
80
78
ENDCHAR
STARTCHAR f
ENCODING 102
SWIDTH 42 0
DWIDTH 7 0
BBX 6 9 1 0
BITMAP
3C
20
20
FC
20
20
20
20
20
ENDCHAR
STARTCHAR g
ENCODING 103
SWIDTH 42 0
DWIDTH 7 0
BBX 5 8 1 -2
BITMAP
78
C8
88
88
98
68
08
F0
ENDCHAR
STARTCHAR h
ENCODING 104
SWIDTH 42 0
DWIDTH 7 0
BBX 5 8 1 0
BITMAP
80
80
B0
C8
88
88
88
88
ENDCHAR
STARTCHAR i
ENCODING 105
SWIDTH 42 0
DWIDTH 7 0
BBX 3 8 1 0
BITMAP
20
00
E0
20
20
20
20
20
ENDCHAR
STARTCHAR j
ENCODING 106
SWIDTH 42 0
DWIDTH 7 0
BBX 4 10 1 -2
BITMAP
10
00
F0
10
10
10
10
10
10
E0
ENDCHAR
STARTCHAR k
ENCODING 107
SWIDTH 42 0
DWIDTH 7 0
BBX 5 8 1 0
BITMAP
80
80
98
A0
C0
A0
B0
98
ENDCHAR
STARTCHAR l
ENCODING 108
SWIDTH 42 0
DWIDTH 7 0
BBX 3 8 1 0
BITMAP
E0
20
20
20
20
20
20
20
ENDCHAR
STARTCHAR m
ENCODING 109
SWIDTH 42 0
DWIDTH 7 0
BBX 5 6 1 0
BITMAP
F8
A8
A8
A8
A8
A8
ENDCHAR
STARTCHAR n
ENCODING 110
SWIDTH 42 0
DWIDTH 7 0
BBX 5 6 1 0
BITMAP
B0
C8
88
88
88
88
ENDCHAR
STARTCHAR o
ENCODING 111
SWIDTH 42 0
DWIDTH 7 0
BBX 6 6 0 0
BITMAP
78
CC
84
84
CC
78
ENDCHAR
STARTCHAR p
ENCODING 112
SWIDTH 42 0
DWIDTH 7 0
BBX 5 8 1 -2
BITMAP
B0
C8
88
88
98
F0
80
80
ENDCHAR
STARTCHAR q
ENCODING 113
SWIDTH 42 0
DWIDTH 7 0
BBX 5 8 1 -2
BITMAP
78
C8
88
88
98
68
08
08
ENDCHAR
STARTCHAR r
ENCODING 114
SWIDTH 42 0
DWIDTH 7 0
BBX 4 6 2 0
BITMAP
B0
D0
80
80
80
80
ENDCHAR
STARTCHAR s
ENCODING 115
SWIDTH 42 0
DWIDTH 7 0
BBX 5 6 1 0
BITMAP
78
80
E0
18
88
F0
ENDCHAR
STARTCHAR t
ENCODING 116
SWIDTH 42 0
DWIDTH 7 0
BBX 5 7 1 0
BITMAP
40
F8
40
40
40
40
78
ENDCHAR
STARTCHAR u
ENCODING 117
SWIDTH 42 0
DWIDTH 7 0
BBX 5 6 1 0
BITMAP
88
88
88
88
98
68
ENDCHAR
STARTCHAR v
ENCODING 118
SWIDTH 42 0
DWIDTH 7 0
BBX 6 6 0 0
BITMAP
84
48
48
48
30
30
ENDCHAR
STARTCHAR w
ENCODING 119
SWIDTH 42 0
DWIDTH 7 0
BBX 6 6 0 0
BITMAP
84
B4
B4
B4
58
48
ENDCHAR
STARTCHAR x
ENCODING 120
SWIDTH 42 0
DWIDTH 7 0
BBX 6 6 0 0
BITMAP
CC
48
30
30
48
CC
ENDCHAR
STARTCHAR y
ENCODING 121
SWIDTH 42 0
DWIDTH 7 0
BBX 6 8 0 -2
BITMAP
84
48
48
30
30
30
20
E0
ENDCHAR
STARTCHAR z
ENCODING 122
SWIDTH 42 0
DWIDTH 7 0
BBX 5 6 1 0
BITMAP
F8
10
30
60
C0
F8
ENDCHAR
STARTCHAR braceleft
ENCODING 123
SWIDTH 42 0
DWIDTH 7 0
BBX 4 10 1 -2
BITMAP
30
40
40
40
C0
40
40
40
40
30
ENDCHAR
STARTCHAR bar
ENCODING 124
SWIDTH 42 0
DWIDTH 7 0
BBX 1 10 3 -2
BITMAP
80
80
80
80
80
80
80
80
80
80
ENDCHAR
STARTCHAR braceright
ENCODING 125
SWIDTH 42 0
DWIDTH 7 0
BBX 5 10 1 -2
BITMAP
C0
20
20
20
38
20
20
20
20
C0
ENDCHAR
STARTCHAR asciitilde
ENCODING 126
SWIDTH 42 0
DWIDTH 7 0
BBX 6 2 0 2
BITMAP
64
98
ENDCHAR
STARTCHAR exclamdown
ENCODING 161
SWIDTH 42 0
DWIDTH 7 0
BBX 1 8 3 -2
BITMAP
80
00
80
80
80
80
80
80
ENDCHAR
STARTCHAR cent
ENCODING 162
SWIDTH 42 0
DWIDTH 7 0
BBX 4 8 1 0
BITMAP
20
70
A0
A0
A0
A0
70
20
ENDCHAR
STARTCHAR sterling
ENCODING 163
SWIDTH 42 0
DWIDTH 7 0
BBX 4 8 2 0
BITMAP
30
40
40
E0
40
40
40
F0
ENDCHAR
STARTCHAR currency
ENCODING 164
SWIDTH 42 0
DWIDTH 7 0
BBX 6 6 0 1
BITMAP
84
78
48
48
78
84
ENDCHAR
STARTCHAR yen
ENCODING 165
SWIDTH 42 0
DWIDTH 7 0
BBX 7 8 0 0
BITMAP
C6
6C
38
7C
10
7C
10
10
ENDCHAR
STARTCHAR brokenbar
ENCODING 166
SWIDTH 42 0
DWIDTH 7 0
BBX 1 10 3 -2
BITMAP
80
80
80
80
00
00
80
80
80
80
ENDCHAR
STARTCHAR section
ENCODING 167
SWIDTH 42 0
DWIDTH 7 0
BBX 4 10 1 -2
BITMAP
70
80
80
60
90
D0
60
10
90
E0
ENDCHAR
STARTCHAR dieresis
ENCODING 168
SWIDTH 42 0
DWIDTH 7 0
BBX 3 1 2 7
BITMAP
A0
ENDCHAR
STARTCHAR copyright
ENCODING 169
SWIDTH 42 0
DWIDTH 7 0
BBX 5 8 1 0
BITMAP
70
88
E8
C8
C8
E8
88
70
ENDCHAR
STARTCHAR ordfeminine
ENCODING 170
SWIDTH 42 0
DWIDTH 7 0
BBX 5 4 1 4
BITMAP
F0
70
90
F8
ENDCHAR
STARTCHAR guillemotleft
ENCODING 171
SWIDTH 42 0
DWIDTH 7 0
BBX 5 6 1 0
BITMAP
28
50
F0
D0
50
28
ENDCHAR
STARTCHAR logicalnot
ENCODING 172
SWIDTH 42 0
DWIDTH 7 0
BBX 6 4 0 1
BITMAP
FC
04
04
04
ENDCHAR
STARTCHAR hyphen
ENCODING 173
SWIDTH 42 0
DWIDTH 7 0
BBX 4 1 1 3
BITMAP
F0
ENDCHAR
STARTCHAR registered
ENCODING 174
SWIDTH 42 0
DWIDTH 7 0
BBX 4 5 1 3
BITMAP
60
F0
D0
F0
60
ENDCHAR
STARTCHAR macron
ENCODING 175
SWIDTH 42 0
DWIDTH 7 0
BBX 3 1 2 7
BITMAP
E0
ENDCHAR
STARTCHAR degree
ENCODING 176
SWIDTH 42 0
DWIDTH 7 0
BBX 2 2 2 6
BITMAP
C0
C0
ENDCHAR
STARTCHAR plusminus
ENCODING 177
SWIDTH 42 0
DWIDTH 7 0
BBX 5 6 1 0
BITMAP
20
20
F8
20
00
F8
ENDCHAR
STARTCHAR twosuperior
ENCODING 178
SWIDTH 42 0
DWIDTH 7 0
BBX 3 4 0 4
BITMAP
E0
20
40
E0
ENDCHAR
STARTCHAR threesuperior
ENCODING 179
SWIDTH 42 0
DWIDTH 7 0
BBX 3 4 0 4
BITMAP
E0
E0
20
E0
ENDCHAR
STARTCHAR acute
ENCODING 180
SWIDTH 42 0
DWIDTH 7 0
BBX 2 1 2 7
BITMAP
C0
ENDCHAR
STARTCHAR mu
ENCODING 181
SWIDTH 42 0
DWIDTH 7 0
BBX 5 8 1 -2
BITMAP
88
88
88
88
98
E8
80
80
ENDCHAR
STARTCHAR paragraph
ENCODING 182
SWIDTH 42 0
DWIDTH 7 0
BBX 4 10 1 -2
BITMAP
F0
F0
F0
70
30
30
30
30
30
30
ENDCHAR
STARTCHAR periodcentered
ENCODING 183
SWIDTH 42 0
DWIDTH 7 0
BBX 1 1 3 3
BITMAP
80
ENDCHAR
STARTCHAR cedilla
ENCODING 184
SWIDTH 42 0
DWIDTH 7 0
BBX 2 2 3 -2
BITMAP
80
C0
ENDCHAR
STARTCHAR onesuperior
ENCODING 185
SWIDTH 42 0
DWIDTH 7 0
BBX 3 4 0 4
BITMAP
C0
40
40
E0
ENDCHAR
STARTCHAR ordmasculine
ENCODING 186
SWIDTH 42 0
DWIDTH 7 0
BBX 4 4 1 4
BITMAP
60
90
90
60
ENDCHAR
STARTCHAR guillemotright
ENCODING 187
SWIDTH 42 0
DWIDTH 7 0
BBX 5 6 1 0
BITMAP
A0
50
58
78
50
A0
ENDCHAR
STARTCHAR onequarter
ENCODING 188
SWIDTH 42 0
DWIDTH 7 0
BBX 7 8 2 0
BITMAP
C6
44
48
F0
3C
3C
5E
84
ENDCHAR
STARTCHAR onehalf
ENCODING 189
SWIDTH 42 0
DWIDTH 7 0
BBX 7 8 2 0
BITMAP
C6
44
48
F0
3E
22
44
8E
ENDCHAR
STARTCHAR threequarters
ENCODING 190
SWIDTH 42 0
DWIDTH 7 0
BBX 7 8 2 0
BITMAP
E6
E4
28
F0
3C
3C
5E
84
ENDCHAR
STARTCHAR questiondown
ENCODING 191
SWIDTH 42 0
DWIDTH 7 0
BBX 5 8 1 -2
BITMAP
20
00
20
20
40
80
88
78
ENDCHAR
STARTCHAR Agrave
ENCODING 192
SWIDTH 42 0
DWIDTH 7 0
BBX 6 9 0 0
BITMAP
30
30
30
30
58
48
78
88
84
ENDCHAR
STARTCHAR Aacute
ENCODING 193
SWIDTH 42 0
DWIDTH 7 0
BBX 6 9 0 0
BITMAP
30
30
30
30
58
48
78
88
84
ENDCHAR
STARTCHAR Acircumflex
ENCODING 194
SWIDTH 42 0
DWIDTH 7 0
BBX 6 9 0 0
BITMAP
78
30
30
30
58
48
78
88
84
ENDCHAR
STARTCHAR Atilde
ENCODING 195
SWIDTH 42 0
DWIDTH 7 0
BBX 6 9 0 0
BITMAP
78
30
30
30
58
48
78
88
84
ENDCHAR
STARTCHAR Adieresis
ENCODING 196
SWIDTH 42 0
DWIDTH 7 0
BBX 6 9 0 0
BITMAP
28
30
30
30
58
48
78
88
84
ENDCHAR
STARTCHAR Aring
ENCODING 197
SWIDTH 42 0
DWIDTH 7 0
BBX 6 10 0 0
BITMAP
30
30
30
30
30
58
48
78
88
84
ENDCHAR
STARTCHAR AE
ENCODING 198
SWIDTH 42 0
DWIDTH 7 0
BBX 6 8 0 0
BITMAP
1C
30
30
78
50
70
90
9C
ENDCHAR
STARTCHAR Ccedilla
ENCODING 199
SWIDTH 42 0
DWIDTH 7 0
BBX 6 10 0 -2
BITMAP
3C
40
80
80
80
80
40
3C
20
30
ENDCHAR
STARTCHAR Egrave
ENCODING 200
SWIDTH 42 0
DWIDTH 7 0
BBX 5 9 1 0
BITMAP
20
F8
80
80
F0
80
80
80
F8
ENDCHAR
STARTCHAR Eacute
ENCODING 201
SWIDTH 42 0
DWIDTH 7 0
BBX 5 9 1 0
BITMAP
40
F8
80
80
F0
80
80
80
F8
ENDCHAR
STARTCHAR Ecircumflex
ENCODING 202
SWIDTH 42 0
DWIDTH 0 0
BBX 0 0 0 0
BITMAP
ENDCHAR
STARTCHAR Edieresis
ENCODING 203
SWIDTH 42 0
DWIDTH 7 0
BBX 5 9 1 0
BITMAP
50
F8
80
80
F0
80
80
80
F8
ENDCHAR
STARTCHAR Igrave
ENCODING 204
SWIDTH 42 0
DWIDTH 7 0
BBX 5 9 1 0
BITMAP
10
F8
20
20
20
20
20
20
F8
ENDCHAR
STARTCHAR Iacute
ENCODING 205
SWIDTH 42 0
DWIDTH 7 0
BBX 5 9 1 0
BITMAP
40
F8
20
20
20
20
20
20
F8
ENDCHAR
STARTCHAR Icircumflex
ENCODING 206
SWIDTH 42 0
DWIDTH 7 0
BBX 5 9 1 0
BITMAP
60
F8
20
20
20
20
20
20
F8
ENDCHAR
STARTCHAR Idieresis
ENCODING 207
SWIDTH 42 0
DWIDTH 7 0
BBX 5 9 1 0
BITMAP
50
F8
20
20
20
20
20
20
F8
ENDCHAR
STARTCHAR Eth
ENCODING 208
SWIDTH 42 0
DWIDTH 7 0
BBX 7 8 0 0
BITMAP
7C
46
42
E2
42
42
46
7C
ENDCHAR
STARTCHAR Ntilde
ENCODING 209
SWIDTH 42 0
DWIDTH 7 0
BBX 5 9 1 0
BITMAP
F0
88
C8
C8
A8
A8
98
98
88
ENDCHAR
STARTCHAR Ograve
ENCODING 210
SWIDTH 42 0
DWIDTH 7 0
BBX 6 9 0 0
BITMAP
10
78
48
84
84
84
84
48
78
ENDCHAR
STARTCHAR Oacute
ENCODING 211
SWIDTH 42 0
DWIDTH 7 0
BBX 6 9 0 0
BITMAP
20
78
48
84
84
84
84
48
78
ENDCHAR
STARTCHAR Ocircumflex
ENCODING 212
SWIDTH 42 0
DWIDTH 7 0
BBX 6 9 0 0
BITMAP
30
78
48
84
84
84
84
48
78
ENDCHAR
STARTCHAR Otilde
ENCODING 213
SWIDTH 42 0
DWIDTH 7 0
BBX 6 9 0 0
BITMAP
78
78
48
84
84
84
84
48
78
ENDCHAR
STARTCHAR Odieresis
ENCODING 214
SWIDTH 42 0
DWIDTH 7 0
BBX 6 9 0 0
BITMAP
50
78
48
84
84
84
84
48
78
ENDCHAR
STARTCHAR multiply
ENCODING 215
SWIDTH 42 0
DWIDTH 7 0
BBX 5 6 1 0
BITMAP
20
00
F8
00
00
20
ENDCHAR
STARTCHAR Oslash
ENCODING 216
SWIDTH 42 0
DWIDTH 7 0
BBX 6 8 0 0
BITMAP
74
4C
9C
94
A4
C4
C8
B8
ENDCHAR
STARTCHAR Ugrave
ENCODING 217
SWIDTH 42 0
DWIDTH 7 0
BBX 5 9 1 0
BITMAP
30
88
88
88
88
88
88
88
70
ENDCHAR
STARTCHAR Uacute
ENCODING 218
SWIDTH 42 0
DWIDTH 7 0
BBX 5 9 1 0
BITMAP
60
88
88
88
88
88
88
88
70
ENDCHAR
STARTCHAR Ucircumflex
ENCODING 219
SWIDTH 42 0
DWIDTH 7 0
BBX 5 9 1 0
BITMAP
F0
88
88
88
88
88
88
88
70
ENDCHAR
STARTCHAR Udieresis
ENCODING 220
SWIDTH 42 0
DWIDTH 7 0
BBX 5 9 1 0
BITMAP
50
88
88
88
88
88
88
88
70
ENDCHAR
STARTCHAR Yacute
ENCODING 221
SWIDTH 42 0
DWIDTH 7 0
BBX 7 9 0 0
BITMAP
30
C6
44
28
28
10
10
10
10
ENDCHAR
STARTCHAR Thorn
ENCODING 222
SWIDTH 42 0
DWIDTH 7 0
BBX 5 8 1 0
BITMAP
80
F0
88
88
88
88
F0
80
ENDCHAR
STARTCHAR germandbls
ENCODING 223
SWIDTH 42 0
DWIDTH 7 0
BBX 5 9 1 0
BITMAP
F0
90
90
A0
A0
90
88
88
B0
ENDCHAR
STARTCHAR agrave
ENCODING 224
SWIDTH 42 0
DWIDTH 7 0
BBX 6 7 1 0
BITMAP
10
78
48
78
88
88
7C
ENDCHAR
STARTCHAR aacute
ENCODING 225
SWIDTH 42 0
DWIDTH 7 0
BBX 6 7 1 0
BITMAP
20
78
48
78
88
88
7C
ENDCHAR
STARTCHAR acircumflex
ENCODING 226
SWIDTH 42 0
DWIDTH 7 0
BBX 6 7 1 0
BITMAP
30
78
48
78
88
88
7C
ENDCHAR
STARTCHAR atilde
ENCODING 227
SWIDTH 42 0
DWIDTH 7 0
BBX 6 7 1 0
BITMAP
78
78
48
78
88
88
7C
ENDCHAR
STARTCHAR adieresis
ENCODING 228
SWIDTH 42 0
DWIDTH 7 0
BBX 6 7 1 0
BITMAP
50
78
48
78
88
88
7C
ENDCHAR
STARTCHAR aring
ENCODING 229
SWIDTH 42 0
DWIDTH 7 0
BBX 6 8 1 0
BITMAP
30
30
78
48
78
88
88
7C
ENDCHAR
STARTCHAR ae
ENCODING 230
SWIDTH 42 0
DWIDTH 7 0
BBX 7 6 0 0
BITMAP
6C
12
7E
90
90
6E
ENDCHAR
STARTCHAR ccedilla
ENCODING 231
SWIDTH 42 0
DWIDTH 7 0
BBX 5 8 1 -2
BITMAP
78
C0
80
80
C0
78
20
30
ENDCHAR
STARTCHAR egrave
ENCODING 232
SWIDTH 42 0
DWIDTH 7 0
BBX 5 7 1 0
BITMAP
10
70
88
F8
80
80
78
ENDCHAR
STARTCHAR eacute
ENCODING 233
SWIDTH 42 0
DWIDTH 7 0
BBX 5 7 1 0
BITMAP
40
70
88
F8
80
80
78
ENDCHAR
STARTCHAR ecircumflex
ENCODING 234
SWIDTH 42 0
DWIDTH 7 0
BBX 5 7 1 0
BITMAP
E0
70
88
F8
80
80
78
ENDCHAR
STARTCHAR edieresis
ENCODING 235
SWIDTH 42 0
DWIDTH 7 0
BBX 5 7 1 0
BITMAP
50
70
88
F8
80
80
78
ENDCHAR
STARTCHAR igrave
ENCODING 236
SWIDTH 42 0
DWIDTH 7 0
BBX 3 7 1 0
BITMAP
20
E0
20
20
20
20
20
ENDCHAR
STARTCHAR iacute
ENCODING 237
SWIDTH 42 0
DWIDTH 7 0
BBX 3 7 1 0
BITMAP
40
E0
20
20
20
20
20
ENDCHAR
STARTCHAR icircumflex
ENCODING 238
SWIDTH 42 0
DWIDTH 7 0
BBX 4 7 1 0
BITMAP
70
E0
20
20
20
20
20
ENDCHAR
STARTCHAR idieresis
ENCODING 239
SWIDTH 42 0
DWIDTH 7 0
BBX 4 7 1 0
BITMAP
50
E0
20
20
20
20
20
ENDCHAR
STARTCHAR eth
ENCODING 240
SWIDTH 42 0
DWIDTH 7 0
BBX 5 8 1 0
BITMAP
E0
50
70
88
88
88
D8
70
ENDCHAR
STARTCHAR ntilde
ENCODING 241
SWIDTH 42 0
DWIDTH 7 0
BBX 5 7 1 0
BITMAP
F0
B0
C8
88
88
88
88
ENDCHAR
STARTCHAR ograve
ENCODING 242
SWIDTH 42 0
DWIDTH 7 0
BBX 6 7 0 0
BITMAP
10
78
CC
84
84
CC
78
ENDCHAR
STARTCHAR oacute
ENCODING 243
SWIDTH 42 0
DWIDTH 7 0
BBX 6 7 0 0
BITMAP
20
78
CC
84
84
CC
78
ENDCHAR
STARTCHAR ocircumflex
ENCODING 244
SWIDTH 42 0
DWIDTH 7 0
BBX 6 7 0 0
BITMAP
30
78
CC
84
84
CC
78
ENDCHAR
STARTCHAR otilde
ENCODING 245
SWIDTH 42 0
DWIDTH 7 0
BBX 6 7 0 0
BITMAP
78
78
CC
84
84
CC
78
ENDCHAR
STARTCHAR odieresis
ENCODING 246
SWIDTH 42 0
DWIDTH 7 0
BBX 6 7 0 0
BITMAP
50
78
CC
84
84
CC
78
ENDCHAR
STARTCHAR divide
ENCODING 247
SWIDTH 42 0
DWIDTH 7 0
BBX 6 6 0 0
BITMAP
84
48
30
30
48
84
ENDCHAR
STARTCHAR oslash
ENCODING 248
SWIDTH 42 0
DWIDTH 7 0
BBX 6 6 0 0
BITMAP
7C
CC
94
A4
CC
F8
ENDCHAR
STARTCHAR ugrave
ENCODING 249
SWIDTH 42 0
DWIDTH 7 0
BBX 5 7 1 0
BITMAP
30
88
88
88
88
98
68
ENDCHAR
STARTCHAR uacute
ENCODING 250
SWIDTH 42 0
DWIDTH 7 0
BBX 5 7 1 0
BITMAP
60
88
88
88
88
98
68
ENDCHAR
STARTCHAR ucircumflex
ENCODING 251
SWIDTH 42 0
DWIDTH 7 0
BBX 5 7 1 0
BITMAP
78
88
88
88
88
98
68
ENDCHAR
STARTCHAR udieresis
ENCODING 252
SWIDTH 42 0
DWIDTH 7 0
BBX 5 7 1 0
BITMAP
50
88
88
88
88
98
68
ENDCHAR
STARTCHAR yacute
ENCODING 253
SWIDTH 42 0
DWIDTH 7 0
BBX 6 9 0 -2
BITMAP
30
84
48
48
30
30
30
20
E0
ENDCHAR
STARTCHAR thorn
ENCODING 254
SWIDTH 42 0
DWIDTH 7 0
BBX 5 10 1 -2
BITMAP
80
80
B0
C8
88
88
98
F0
80
80
ENDCHAR
STARTCHAR ydieresis
ENCODING 255
SWIDTH 42 0
DWIDTH 7 0
BBX 6 9 0 -2
BITMAP
50
84
48
48
30
30
30
20
E0
ENDCHAR
STARTCHAR fl
ENCODING -1
SWIDTH 42 0
DWIDTH 7 0
BBX 5 9 1 0
BITMAP
78
48
48
E8
48
48
48
48
48
ENDCHAR
STARTCHAR endash
ENCODING -1
SWIDTH 42 0
DWIDTH 7 0
BBX 5 1 1 3
BITMAP
F8
ENDCHAR
STARTCHAR dagger
ENCODING -1
SWIDTH 42 0
DWIDTH 7 0
BBX 5 10 1 -2
BITMAP
20
20
20
F8
20
20
20
20
20
20
ENDCHAR
STARTCHAR Zcaron
ENCODING -1
SWIDTH 42 0
DWIDTH 7 0
BBX 6 9 0 0
BITMAP
30
FC
08
18
10
20
40
C0
FC
ENDCHAR
STARTCHAR oe
ENCODING -1
SWIDTH 42 0
DWIDTH 7 0
BBX 6 6 0 0
BITMAP
78
94
9C
90
90
7C
ENDCHAR
STARTCHAR Ydieresis
ENCODING -1
SWIDTH 42 0
DWIDTH 7 0
BBX 7 9 0 0
BITMAP
28
C6
44
28
28
10
10
10
10
ENDCHAR
STARTCHAR dotlessi
ENCODING -1
SWIDTH 42 0
DWIDTH 7 0
BBX 3 6 1 0
BITMAP
E0
20
20
20
20
20
ENDCHAR
STARTCHAR lslash
ENCODING -1
SWIDTH 42 0
DWIDTH 7 0
BBX 4 8 1 0
BITMAP
E0
20
30
30
60
60
20
20
ENDCHAR
STARTCHAR Lslash
ENCODING -1
SWIDTH 42 0
DWIDTH 7 0
BBX 6 8 0 0
BITMAP
40
40
60
60
C0
40
40
7C
ENDCHAR
STARTCHAR daggerdbl
ENCODING -1
SWIDTH 42 0
DWIDTH 7 0
BBX 5 10 1 -2
BITMAP
20
20
20
F8
20
20
F8
20
20
20
ENDCHAR
STARTCHAR fi
ENCODING -1
SWIDTH 42 0
DWIDTH 7 0
BBX 5 9 1 0
BITMAP
20
68
40
F8
48
48
48
48
48
ENDCHAR
STARTCHAR guilsinglright
ENCODING -1
SWIDTH 42 0
DWIDTH 7 0
BBX 3 6 2 0
BITMAP
80
40
60
60
40
80
ENDCHAR
STARTCHAR OE
ENCODING -1
SWIDTH 42 0
DWIDTH 7 0
BBX 6 8 0 0
BITMAP
7C
90
90
98
90
90
90
7C
ENDCHAR
STARTCHAR emdash
ENCODING -1
SWIDTH 42 0
DWIDTH 7 0
BBX 6 1 0 3
BITMAP
FC
ENDCHAR
STARTCHAR caron
ENCODING -1
SWIDTH 42 0
DWIDTH 7 0
BBX 4 1 1 7
BITMAP
F0
ENDCHAR
STARTCHAR ogonek
ENCODING -1
SWIDTH 42 0
DWIDTH 7 0
BBX 2 2 2 -2
BITMAP
C0
C0
ENDCHAR
STARTCHAR hungarumlaut
ENCODING -1
SWIDTH 42 0
DWIDTH 7 0
BBX 4 1 1 7
BITMAP
F0
ENDCHAR
STARTCHAR guilsinglleft
ENCODING -1
SWIDTH 42 0
DWIDTH 7 0
BBX 3 6 2 0
BITMAP
20
40
C0
C0
40
20
ENDCHAR
STARTCHAR dotaccent
ENCODING -1
SWIDTH 42 0
DWIDTH 7 0
BBX 1 1 3 7
BITMAP
80
ENDCHAR
STARTCHAR breve
ENCODING -1
SWIDTH 42 0
DWIDTH 7 0
BBX 4 1 1 7
BITMAP
F0
ENDCHAR
STARTCHAR bullet
ENCODING -1
SWIDTH 42 0
DWIDTH 7 0
BBX 3 3 2 1
BITMAP
E0
E0
E0
ENDCHAR
STARTCHAR tilde
ENCODING -1
SWIDTH 42 0
DWIDTH 7 0
BBX 4 1 1 7
BITMAP
F0
ENDCHAR
STARTCHAR circumflex
ENCODING -1
SWIDTH 42 0
DWIDTH 7 0
BBX 4 1 1 7
BITMAP
F0
ENDCHAR
STARTCHAR quotedblleft
ENCODING -1
SWIDTH 42 0
DWIDTH 7 0
BBX 4 3 1 5
BITMAP
B0
A0
B0
ENDCHAR
STARTCHAR quotesingle
ENCODING -1
SWIDTH 42 0
DWIDTH 7 0
BBX 1 3 3 5
BITMAP
80
80
80
ENDCHAR
STARTCHAR scaron
ENCODING -1
SWIDTH 42 0
DWIDTH 7 0
BBX 5 7 1 0
BITMAP
E0
78
80
E0
18
88
F0
ENDCHAR
STARTCHAR ring
ENCODING -1
SWIDTH 42 0
DWIDTH 7 0
BBX 2 2 2 8
BITMAP
C0
C0
ENDCHAR
STARTCHAR quotesinglbase
ENCODING -1
SWIDTH 42 0
DWIDTH 7 0
BBX 2 4 2 -2
BITMAP
C0
C0
40
C0
ENDCHAR
STARTCHAR florin
ENCODING -1
SWIDTH 42 0
DWIDTH 7 0
BBX 5 10 1 -2
BITMAP
18
20
20
40
E0
40
40
C0
80
80
ENDCHAR
STARTCHAR trademark
ENCODING -1
SWIDTH 42 0
DWIDTH 7 0
BBX 7 4 0 4
BITMAP
F2
5E
5E
52
ENDCHAR
STARTCHAR fraction
ENCODING -1
SWIDTH 42 0
DWIDTH 7 0
BBX 7 8 0 0
BITMAP
06
04
08
10
30
20
40
80
ENDCHAR
STARTCHAR grave
ENCODING -1
SWIDTH 42 0
DWIDTH 7 0
BBX 2 1 2 7
BITMAP
C0
ENDCHAR
STARTCHAR perthousand
ENCODING -1
SWIDTH 42 0
DWIDTH 7 0
BBX 6 8 0 0
BITMAP
D0
D0
E0
20
7C
7C
BC
BC
ENDCHAR
STARTCHAR ellipsis
ENCODING -1
SWIDTH 42 0
DWIDTH 7 0
BBX 5 1 1 0
BITMAP
A8
ENDCHAR
STARTCHAR quotedblright
ENCODING -1
SWIDTH 42 0
DWIDTH 7 0
BBX 4 3 1 5
BITMAP
90
90
90
ENDCHAR
STARTCHAR Scaron
ENCODING -1
SWIDTH 42 0
DWIDTH 7 0
BBX 5 9 1 0
BITMAP
E0
70
80
80
60
18
08
88
F0
ENDCHAR
STARTCHAR quotedblbase
ENCODING -1
SWIDTH 42 0
DWIDTH 7 0
BBX 4 4 1 -2
BITMAP
90
90
90
90
ENDCHAR
STARTCHAR zcaron
ENCODING -1
SWIDTH 42 0
DWIDTH 7 0
BBX 5 7 1 0
BITMAP
30
F8
10
30
60
C0
F8
ENDCHAR
ENDFONT
